<svg width="56" height="56" viewBox="0 0 56 56" fill="none" xmlns="http://www.w3.org/2000/svg">
<g id="zondicons:ticket">
<path id="Vector" d="M56 33.6V47.6H0V33.6C1.48521 33.6 2.90959 33.01 3.9598 31.9598C5.01 30.9096 5.6 29.4852 5.6 28C5.6 26.5148 5.01 25.0904 3.9598 24.0402C2.90959 22.99 1.48521 22.4 0 22.4L0 8.40002H56V22.4C54.5148 22.4 53.0904 22.99 52.0402 24.0402C50.99 25.0904 50.4 26.5148 50.4 28C50.4 29.4852 50.99 30.9096 52.0402 31.9598C53.0904 33.01 54.5148 33.6 56 33.6ZM8.4 14V42H47.6V14H8.4ZM28 33.824L19.824 39.536L22.68 29.96L14.756 23.968L24.724 23.744L28 14.336L31.276 23.744L41.244 23.968L33.292 29.988L36.176 39.508L28 33.852V33.824Z" fill="#9198AF"/>
</g>
</svg>
